<svg xmlns="http://www.w3.org/2000/svg" viewBox="0 0 48 48"><defs><style>.cls-1{fill:#5b9ad8}.cls-2{fill:#6fabe6}.cls-4{fill:#f6ccaf}.cls-5{fill:#82bcf4}.cls-6{fill:#dad7e5}.cls-7{fill:#edebf2}.cls-11{fill:#374f68}</style></defs><g id="Web_Programmer" data-name="Web Programmer"><path class="cls-1" d="M22 27h-4l-5.88-4.9 7-2.76z"/><path class="cls-2" d="M22 27c-2.52 0-3.31-1.37-7.54-5.82l4.67-1.84zM18 27h-6v16h-1a4 4 0 0 0 .54 2c-5.28 0-7.19.41-9.08-1.46A5 5 0 0 1 1 40l2.48-10.73A8.14 8.14 0 0 1 8 23.73l4.16-1.63z"/><path d="M26 27h-4c-3.19-8.51-3-7.62-2.62-7.76a6.94 6.94 0 0 0 9.24 0c.38.14.67-1.01-2.62 7.76z" style="fill:#edb996"/><path class="cls-4" d="M27.57 22.82 26 27h-2.75L22 23.61a1 1 0 0 1 1.31-1.28 6.49 6.49 0 0 0 4.26.49z"/><path class="cls-1" d="M35.88 22.1 30 27h-4l2.87-7.66z"/><path class="cls-2" d="M35.88 22.1C30.19 26.84 29.9 27 30 27a1.39 1.39 0 0 1-1.3-1.87L30.61 20z"/><path class="cls-2" d="M47 40a5 5 0 0 1-1.46 3.54C43.66 45.4 42 45 36.46 45a4 4 0 0 0 .54-2h-1V27h-6l5.88-4.9 3.3 1.29a8.13 8.13 0 0 1 5.34 5.88z"/><path class="cls-5" d="M47 40a4.94 4.94 0 0 1-1 3H36V27h-6l5.88-4.9 3.3 1.29a8.13 8.13 0 0 1 5.34 5.88zM12.12 22.1 18 27h-6c0 16.82-.1 16 0 16a6 6 0 0 1-5.94-6.92L8 23.73z"/><path class="cls-6" d="M12 27h24v16H12z"/><path class="cls-7" d="M36 27v14h-8a14 14 0 0 1-14-14z"/><path class="cls-6" d="M37 43a4 4 0 0 1-4 4H15a4 4 0 0 1-4-4z"/><path class="cls-7" d="M37 43a3.9 3.9 0 0 1-.36 1.64c-1.12.51-.27.36-19.64.36a4 4 0 0 1-3.46-2z"/><path class="cls-4" d="M31 11c0 2.88.26 4.73-1.16 6.84A7 7 0 0 1 19.05 19C16.68 16.58 17 14.2 17 11c3.12 0 5.8.28 8.93-2.07A6.86 6.86 0 0 0 31 11z"/><path d="M31 11c0 2.88.26 4.73-1.16 6.84A7 7 0 0 1 19 12v-1a10.47 10.47 0 0 0 6.93-2.07A6.85 6.85 0 0 0 31 11z" style="fill:#ffdec7"/><path d="M33 5.5V9a2 2 0 0 1-2 2 6.85 6.85 0 0 1-5.07-2.07A10.27 10.27 0 0 1 19.76 11c-3.07 0-3.47.13-4.17-.59S15 9.47 15 2.5A1.5 1.5 0 0 1 16.5 1h12A1.5 1.5 0 0 1 30 2.5 1.5 1.5 0 0 0 31.5 4 1.5 1.5 0 0 1 33 5.5z" style="fill:#be927c"/><path d="M27.88 7c-3.15 2.33-6 2-8.88 2a2 2 0 0 1-2-2V1h-.5A1.5 1.5 0 0 0 15 2.5V9a2 2 0 0 0 2 2c3.12 0 5.8.28 8.93-2.07a6.85 6.85 0 0 0 4.9 2.07A2 2 0 0 0 33 9c-3.6 0-4.95-2.16-5.12-2z" style="fill:#a87e6b"/><path class="cls-1" d="M12 36v2H9a1 1 0 0 1 0-2zM39 38h-3v-2h3a1 1 0 0 1 0 2z"/><path class="cls-11" d="M20 38c-.54 0-.57-.15-2.71-2.29a1 1 0 0 1 0-1.42l2-2a1 1 0 0 1 1.42 1.42L19.41 35l1.3 1.29A1 1 0 0 1 20 38zM28 38a1 1 0 0 1-.71-1.71l1.3-1.29-1.3-1.29a1 1 0 0 1 1.42-1.42l2 2a1 1 0 0 1 0 1.42C28.53 37.89 28.54 38 28 38zM23 39a1 1 0 0 1-.95-1.32l2-6a1 1 0 0 1 1.9.64C23.82 38.71 24 39 23 39z"/></g></svg>